<svg width="1528" height="334" viewBox="0 0 1528 334" fill="none" xmlns="http://www.w3.org/2000/svg">
<g clip-path="url(#clip0_392_67)">
<mask id="mask0_392_67" style="mask-type:luminance" maskUnits="userSpaceOnUse" x="74" y="23" width="577" height="289">
<path d="M74.7031 23.1504H650.703V311.15H74.7031V23.1504Z" fill="white"/>
</mask>
<g mask="url(#mask0_392_67)">
<path d="M120.004 229.728H123.697L120.265 244.062C119.756 246.189 119.852 247.79 120.556 248.858C121.257 249.928 122.562 250.462 124.47 250.462C126.366 250.462 127.921 249.928 129.136 248.858C130.352 247.79 131.214 246.189 131.724 244.062L135.154 229.728H138.896L135.38 244.417C134.616 247.609 133.254 249.998 131.305 251.582C129.354 253.169 126.797 253.961 123.633 253.961C120.466 253.961 118.294 253.17 117.112 251.59C115.928 250.012 115.721 247.62 116.488 244.417L120.004 229.728Z" fill="#696A6A"/>
<path d="M138.398 253.334L144.273 228.794L155.436 243.225C155.734 243.631 156.036 244.067 156.333 244.53C156.63 244.993 156.934 245.513 157.246 246.094L161.165 229.729H164.622L158.752 254.25L147.354 239.562C147.049 239.166 146.765 238.747 146.5 238.306C146.232 237.865 145.99 237.402 145.769 236.919L141.84 253.334H138.398Z" fill="#696A6A"/>
<path d="M164.316 253.334L169.967 229.729H173.706L168.056 253.334H164.316Z" fill="#696A6A"/>
<path d="M173.434 253.334L179.084 229.729H191.924L191.144 232.985H182.044L180.635 238.87H189.735L188.93 242.239H179.828L177.174 253.334H173.434Z" fill="#696A6A"/>
<path d="M190.395 253.334L196.045 229.729H199.784L194.135 253.334H190.395Z" fill="#696A6A"/>
<path d="M199.508 253.334L205.158 229.729H217.998L217.218 232.985H208.118L206.701 238.902H215.801L214.996 242.273H205.896L204.069 249.899H213.169L212.348 253.334H199.508Z" fill="#696A6A"/>
<path d="M221.21 249.866H224.354C226.082 249.866 227.407 249.747 228.329 249.511C229.25 249.275 230.095 248.877 230.87 248.318C231.922 247.557 232.801 246.607 233.507 245.473C234.213 244.339 234.747 243.018 235.107 241.513C235.466 240.007 235.565 238.69 235.402 237.558C235.238 236.422 234.814 235.474 234.127 234.71C233.611 234.153 232.93 233.753 232.079 233.515C231.227 233.281 229.841 233.162 227.913 233.162H226.561H225.209L221.21 249.866ZM216.641 253.334L222.291 229.727H227.335C230.615 229.727 232.882 229.895 234.138 230.234C235.391 230.574 236.427 231.142 237.242 231.937C238.323 232.979 239.011 234.318 239.307 235.95C239.602 237.585 239.498 239.45 238.997 241.546C238.495 243.642 237.707 245.499 236.633 247.117C235.561 248.735 234.231 250.07 232.65 251.123C231.454 251.919 230.171 252.486 228.809 252.826C227.442 253.163 225.405 253.334 222.69 253.334H221.683H216.641Z" fill="#696A6A"/>
<path d="M257.208 239.597H258.168C260.241 239.597 261.68 239.363 262.482 238.902C263.286 238.441 263.826 237.623 264.106 236.451C264.408 235.194 264.252 234.306 263.636 233.791C263.02 233.275 261.724 233.015 259.744 233.015H258.784L257.208 239.597ZM256.22 242.738L253.684 253.334H250.18L255.832 229.729H261.489C263.165 229.729 264.377 229.822 265.124 230.01C265.868 230.197 266.482 230.507 266.968 230.938C267.558 231.486 267.946 232.225 268.133 233.154C268.318 234.085 268.278 235.109 268.012 236.225C267.742 237.343 267.292 238.375 266.657 239.322C266.022 240.267 265.278 241.01 264.428 241.546C263.737 241.977 262.976 242.283 262.141 242.465C261.305 242.649 260.05 242.738 258.374 242.738H257.637H256.22Z" fill="#696A6A"/>
<path d="M272.628 244.063H279.04L277.97 238.677C277.919 238.334 277.871 237.939 277.83 237.493C277.791 237.046 277.764 236.549 277.747 236.001C277.499 236.517 277.25 236.998 277 237.445C276.752 237.89 276.511 238.301 276.274 238.677L272.628 244.063ZM280.751 253.334L279.595 247.255H270.479L266.352 253.334H262.426L279.44 228.794L284.695 253.334H280.751Z" fill="#696A6A"/>
<path d="M290.056 253.334L292.64 242.53L287.957 229.729H291.886L294.793 237.742C294.86 237.947 294.94 238.215 295.032 238.549C295.125 238.882 295.216 239.241 295.301 239.629C295.536 239.253 295.777 238.895 296.018 238.563C296.26 238.23 296.504 237.925 296.75 237.645L303.594 229.729H307.336L296.349 242.53L293.764 253.334H290.056Z" fill="#696A6A"/>
<path d="M325.741 241.674C325.742 241.492 325.795 240.988 325.899 240.16C325.979 239.472 326.042 238.901 326.087 238.449C325.865 238.988 325.602 239.526 325.301 240.062C324.998 240.6 324.651 241.148 324.255 241.708L315.225 254.285L312.278 241.45C312.153 240.922 312.057 240.412 311.993 239.918C311.929 239.424 311.885 238.934 311.863 238.449C311.735 238.945 311.573 239.462 311.374 240.006C311.175 240.549 310.938 241.117 310.659 241.708L305.409 253.333H301.969L313.295 228.726L316.519 243.626C316.566 243.862 316.634 244.256 316.717 244.804C316.799 245.352 316.897 246.029 317.01 246.834C317.391 246.157 317.941 245.298 318.663 244.256C318.855 243.976 319.002 243.761 319.101 243.61L329.297 228.726L328.97 253.333H325.495L325.741 241.674Z" fill="#696A6A"/>
<path d="M331.957 253.334L337.609 229.729H350.449L349.669 232.985H340.568L339.152 238.902H348.252L347.446 242.273H338.345L336.52 249.899H345.62L344.796 253.334H331.957Z" fill="#696A6A"/>
<path d="M349.09 253.334L354.965 228.794L366.127 243.225C366.426 243.631 366.727 244.067 367.025 244.53C367.322 244.993 367.626 245.513 367.938 246.094L371.857 229.729H375.315L369.443 254.25L358.046 239.562C357.741 239.166 357.457 238.747 357.191 238.306C356.923 237.865 356.682 237.402 356.461 236.919L352.531 253.334H349.09Z" fill="#696A6A"/>
<path d="M387.249 232.985L382.379 253.334H378.639L383.508 232.985H377.395L378.175 229.729H394.111L393.332 232.985H387.249Z" fill="#696A6A"/>
<path d="M391.13 248.608L394.455 247.19C394.488 248.242 394.814 249.046 395.435 249.6C396.056 250.154 396.954 250.43 398.13 250.43C399.239 250.43 400.199 250.113 401.004 249.478C401.811 248.845 402.343 247.996 402.598 246.932C402.93 245.544 402.102 244.308 400.122 243.224C399.844 243.062 399.631 242.944 399.484 242.868C397.251 241.6 395.835 240.452 395.238 239.425C394.642 238.398 394.519 237.144 394.874 235.661C395.334 233.737 396.344 232.178 397.903 230.985C399.462 229.792 401.272 229.194 403.338 229.194C405.035 229.194 406.375 229.53 407.355 230.202C408.336 230.876 408.896 231.84 409.035 233.097L405.743 234.645C405.458 233.904 405.082 233.361 404.615 233.016C404.147 232.672 403.555 232.5 402.844 232.5C401.839 232.5 400.975 232.77 400.254 233.305C399.536 233.844 399.066 234.564 398.848 235.468C398.51 236.886 399.492 238.208 401.798 239.433C401.975 239.529 402.114 239.606 402.214 239.66C404.231 240.733 405.543 241.785 406.144 242.812C406.747 243.84 406.866 245.121 406.496 246.657C405.962 248.894 404.851 250.67 403.163 251.986C401.475 253.302 399.462 253.961 397.127 253.961C395.166 253.961 393.671 253.5 392.642 252.574C391.61 251.65 391.106 250.329 391.13 248.608Z" fill="#696A6A"/>
<path d="M418.762 253.334L424.412 229.729H428.152L422.502 253.334H418.762Z" fill="#696A6A"/>
<path d="M427.879 253.334L433.754 228.794L444.916 243.225C445.215 243.631 445.516 244.067 445.814 244.53C446.111 244.993 446.415 245.513 446.727 246.094L450.646 229.729H454.103L448.232 254.25L436.835 239.562C436.53 239.166 436.244 238.747 435.979 238.306C435.712 237.865 435.47 237.402 435.248 236.919L431.32 253.334H427.879Z" fill="#696A6A"/>
<path d="M466.038 232.985L461.166 253.334H457.428L462.297 232.985H456.184L456.964 229.729H472.9L472.121 232.985H466.038Z" fill="#696A6A"/>
<path d="M470.109 253.334L475.76 229.729H488.6L487.821 232.985H478.721L477.304 238.902H486.404L485.597 242.273H476.497L474.672 249.899H483.772L482.949 253.334H470.109Z" fill="#696A6A"/>
<path d="M494.225 239.789H494.902C496.881 239.789 498.253 239.554 499.016 239.081C499.778 238.607 500.306 237.77 500.592 236.565C500.904 235.265 500.776 234.347 500.204 233.817C499.637 233.282 498.409 233.017 496.524 233.017H495.846L494.225 239.789ZM493.276 242.771L490.746 253.334H487.242L492.894 229.729H498.112C499.641 229.729 500.804 229.83 501.597 230.035C502.392 230.239 503.032 230.577 503.516 231.051C504.092 231.619 504.465 232.358 504.638 233.261C504.808 234.162 504.764 235.151 504.508 236.225C504.056 238.117 503.256 239.598 502.109 240.669C500.962 241.737 499.493 242.381 497.702 242.594L503.054 253.334H498.825L493.7 242.771H493.276Z" fill="#696A6A"/>
<path d="M505.27 253.334L510.92 229.729H523.76L522.982 232.985H513.88L512.471 238.87H521.572L520.766 242.239H511.666L509.01 253.334H505.27Z" fill="#696A6A"/>
<path d="M528.093 244.063H534.507L533.436 238.677C533.384 238.334 533.337 237.939 533.296 237.493C533.257 237.046 533.231 236.549 533.213 236.001C532.964 236.517 532.715 236.998 532.467 237.445C532.219 237.89 531.976 238.301 531.739 238.677L528.093 244.063ZM536.217 253.334L535.061 247.255H525.945L521.819 253.334H517.891L534.905 228.794L540.161 253.334H536.217Z" fill="#696A6A"/>
<path d="M564.51 235.468C563.674 234.544 562.722 233.85 561.653 233.388C560.586 232.928 559.402 232.694 558.102 232.694C555.589 232.694 553.344 233.522 551.372 235.177C549.397 236.833 548.096 238.977 547.465 241.612C546.856 244.16 547.121 246.26 548.26 247.914C549.398 249.57 551.137 250.4 553.472 250.4C554.836 250.4 556.19 250.152 557.54 249.657C558.889 249.162 560.25 248.416 561.62 247.414L560.581 251.753C559.398 252.494 558.17 253.049 556.9 253.413C555.628 253.778 554.301 253.961 552.918 253.961C551.158 253.961 549.601 253.666 548.25 253.074C546.898 252.484 545.793 251.614 544.938 250.462C544.088 249.334 543.542 248.005 543.309 246.472C543.072 244.941 543.161 243.309 543.574 241.577C543.989 239.848 544.681 238.222 545.648 236.701C546.613 235.18 547.806 233.844 549.222 232.694C550.644 231.533 552.164 230.656 553.782 230.057C555.402 229.462 557.073 229.162 558.792 229.162C560.144 229.162 561.384 229.365 562.513 229.769C563.642 230.17 564.685 230.78 565.644 231.6L564.51 235.468Z" fill="#696A6A"/>
<path d="M564.871 253.334L570.522 229.729H583.362L582.582 232.985H573.483L572.066 238.902H581.166L580.359 242.273H571.259L569.434 249.899H578.534L577.711 253.334H564.871Z" fill="#696A6A"/>
<path d="M496.652 209.158H470.941L506.699 80.0182H532.411L496.652 209.158Z" fill="#66686C"/>
<path d="M483.305 84.1011C481.522 81.6437 478.773 80.4037 475.038 80.4037H333.657L326.654 105.697H352.38V105.682H455.272L447.786 132.712H344.892L344.901 132.656H319.186L297.844 209.705H323.572L337.894 157.99H453.556C457.168 157.99 460.568 156.758 463.765 154.294C466.956 151.828 469.056 148.786 470.062 145.154L484.384 93.4291C485.429 89.6758 485.068 86.5611 483.305 84.1011Z" fill="#66686C"/>
<path d="M282.862 201.095C281.442 206.209 276.786 209.746 271.478 209.746H138.824C135.209 209.746 132.522 208.514 130.756 206.053C128.99 203.589 128.612 200.541 129.621 196.91L161.989 80.3941H187.724L158.813 184.461H261.754L290.665 80.3941H316.394L282.862 201.095Z" fill="#66686C"/>
<path d="M576.815 80.2595L609.367 144.997L540.938 209.717L576.815 80.2595Z" fill="#27803B"/>
<path d="M553.996 80.2595L586.524 144.997L518.066 209.717L553.996 80.2595Z" fill="#E9661C"/>
</g>
</g>
<g clip-path="url(#clip1_392_67)">
<path d="M1060.87 221.119C1060.48 221.12 1060.11 221.259 1059.82 221.51C1059.52 221.762 1059.33 222.109 1059.27 222.491L1050.02 281.149C1049.98 281.363 1050 281.582 1050.06 281.791C1050.12 282 1050.22 282.193 1050.36 282.358C1050.5 282.523 1050.67 282.655 1050.87 282.746C1051.07 282.837 1051.28 282.885 1051.5 282.885H1062.47C1062.86 282.884 1063.23 282.746 1063.52 282.495C1063.82 282.244 1064.01 281.897 1064.07 281.515L1066.79 264.289C1066.85 263.907 1067.05 263.56 1067.34 263.309C1067.63 263.058 1068.01 262.92 1068.39 262.919H1078.36C1090.02 262.919 1099.91 254.418 1101.72 242.896C1103.54 231.278 1094.46 221.143 1081.6 221.119H1060.87ZM1071.53 234.214H1079.51C1086.08 234.214 1088.22 238.089 1087.54 242.376C1086.87 246.672 1083.55 249.836 1077.19 249.836H1069.07L1071.53 234.214ZM1124.03 238.204C1121.26 238.214 1118.07 238.781 1114.49 240.271C1106.29 243.691 1102.34 250.763 1100.67 255.917C1100.67 255.917 1095.34 271.644 1107.38 280.285C1107.38 280.285 1118.54 288.6 1131.11 279.77L1130.89 281.149C1130.86 281.363 1130.87 281.582 1130.93 281.791C1130.99 282 1131.09 282.193 1131.23 282.358C1131.38 282.523 1131.55 282.655 1131.75 282.746C1131.94 282.837 1132.16 282.885 1132.38 282.885H1142.79C1143.59 282.885 1144.27 282.303 1144.39 281.513L1150.73 241.343C1150.76 241.129 1150.75 240.91 1150.69 240.701C1150.63 240.493 1150.53 240.299 1150.38 240.134C1150.24 239.969 1150.07 239.837 1149.87 239.746C1149.68 239.655 1149.46 239.608 1149.24 239.607H1138.83C1138.03 239.607 1137.35 240.19 1137.23 240.977L1136.89 243.139H1136.89C1136.89 243.139 1132.34 238.173 1124.03 238.204H1124.03ZM1124.37 250.892C1125.56 250.892 1126.66 251.055 1127.64 251.372C1132.13 252.815 1134.68 257.128 1133.94 261.808C1133.03 267.57 1128.31 271.815 1122.25 271.815C1121.05 271.815 1119.96 271.651 1118.98 271.335C1114.49 269.892 1111.92 265.576 1112.66 260.897C1113.57 255.137 1118.31 250.892 1124.37 250.892Z" fill="#003087"/>
<path d="M1210.83 221.119C1210.03 221.119 1209.35 221.702 1209.23 222.491L1199.98 281.149C1199.94 281.364 1199.95 281.583 1200.01 281.792C1200.07 282 1200.18 282.194 1200.32 282.359C1200.46 282.524 1200.63 282.656 1200.83 282.747C1201.03 282.838 1201.24 282.885 1201.46 282.885H1212.43C1213.23 282.885 1213.91 282.304 1214.03 281.515L1216.75 264.289C1216.81 263.907 1217 263.56 1217.3 263.309C1217.59 263.058 1217.97 262.92 1218.35 262.919H1228.32C1239.98 262.919 1249.87 254.418 1251.68 242.896C1253.5 231.278 1244.42 221.143 1231.56 221.119H1210.83ZM1221.49 234.214H1229.47C1236.04 234.214 1238.18 238.089 1237.5 242.376C1236.83 246.672 1233.51 249.836 1227.15 249.836H1219.03L1221.49 234.214ZM1273.99 238.204C1271.22 238.214 1268.03 238.781 1264.45 240.271C1256.25 243.691 1252.3 250.763 1250.63 255.917C1250.63 255.917 1245.3 271.644 1257.34 280.285C1257.34 280.285 1268.5 288.6 1281.07 279.77L1280.85 281.149C1280.82 281.364 1280.83 281.583 1280.89 281.792C1280.95 282 1281.05 282.194 1281.19 282.359C1281.33 282.524 1281.51 282.656 1281.71 282.747C1281.9 282.838 1282.12 282.885 1282.33 282.885H1292.75C1293.13 282.884 1293.51 282.745 1293.8 282.494C1294.09 282.243 1294.29 281.895 1294.35 281.513L1300.69 241.343C1300.72 241.129 1300.71 240.91 1300.65 240.701C1300.59 240.492 1300.48 240.298 1300.34 240.133C1300.2 239.969 1300.03 239.836 1299.83 239.745C1299.63 239.654 1299.42 239.607 1299.2 239.607H1288.79C1287.99 239.607 1287.31 240.19 1287.19 240.977L1286.85 243.139C1286.85 243.139 1282.3 238.173 1273.99 238.204ZM1274.33 250.892C1275.52 250.892 1276.62 251.055 1277.6 251.372C1282.09 252.815 1284.64 257.128 1283.9 261.808C1282.99 267.57 1278.27 271.815 1272.21 271.815C1271.01 271.815 1269.92 271.651 1268.94 271.335C1264.45 269.892 1261.88 265.576 1262.62 260.897C1263.53 255.137 1268.27 250.892 1274.33 250.892Z" fill="#0070E0"/>
<path d="M1155.67 239.612C1155.48 239.611 1155.29 239.656 1155.12 239.743C1154.95 239.83 1154.8 239.956 1154.69 240.112C1154.57 240.267 1154.5 240.446 1154.47 240.636C1154.44 240.825 1154.45 241.019 1154.51 241.202L1165.93 276.628L1155.6 293.326C1155.1 294.136 1155.69 295.181 1156.64 295.181H1168.84C1169.19 295.181 1169.53 295.091 1169.83 294.92C1170.14 294.748 1170.39 294.501 1170.57 294.203L1202.45 241.456C1202.94 240.646 1202.36 239.609 1201.41 239.609H1189.22C1188.86 239.609 1188.52 239.701 1188.21 239.875C1187.91 240.049 1187.65 240.3 1187.47 240.603L1174.92 261.794L1168.55 240.762C1168.34 240.077 1167.71 239.611 1167 239.611L1155.67 239.612Z" fill="#003087"/>
<path d="M1312.52 221.119C1311.72 221.119 1311.04 221.702 1310.92 222.491L1301.67 281.149C1301.63 281.364 1301.65 281.583 1301.71 281.792C1301.76 282 1301.87 282.194 1302.01 282.359C1302.15 282.524 1302.32 282.656 1302.52 282.747C1302.72 282.838 1302.93 282.885 1303.15 282.885H1314.12C1314.92 282.885 1315.6 282.304 1315.72 281.515L1324.97 222.855C1325.01 222.64 1324.99 222.421 1324.94 222.212C1324.88 222.003 1324.77 221.809 1324.63 221.644C1324.49 221.479 1324.31 221.347 1324.12 221.256C1323.92 221.166 1323.71 221.119 1323.49 221.119H1312.52Z" fill="#0070E0"/>
<path d="M1177.02 69.8488C1174.83 69.8488 1172.97 71.439 1172.63 73.6001L1165.33 119.87L1158.63 162.388L1158.62 162.423L1158.63 162.388L1165.33 119.87C1165.67 117.709 1167.54 116.119 1169.72 116.119H1191.1C1212.61 116.119 1230.88 100.422 1234.21 79.1525C1234.46 77.5654 1234.6 75.9631 1234.63 74.3568V74.3545H1234.63C1229.16 71.486 1222.74 69.8477 1215.7 69.8477L1177.02 69.8488Z" fill="#001C64"/>
<path d="M1234.63 74.3535C1234.6 75.9334 1234.46 77.535 1234.21 79.1516C1230.88 100.421 1212.61 116.118 1191.1 116.118H1169.72C1167.54 116.118 1165.68 117.708 1165.33 119.869L1158.63 162.387L1154.42 189.062C1154.34 189.577 1154.37 190.104 1154.52 190.606C1154.66 191.108 1154.91 191.573 1155.25 191.969C1155.58 192.366 1156.01 192.684 1156.48 192.902C1156.95 193.121 1157.47 193.234 1157.99 193.234H1181.19C1183.38 193.234 1185.24 191.644 1185.58 189.483L1191.7 150.716C1191.86 149.671 1192.39 148.718 1193.2 148.03C1194 147.342 1195.03 146.964 1196.09 146.963H1209.75C1231.26 146.963 1249.52 131.267 1252.86 109.999C1255.22 94.8997 1247.63 81.1648 1234.63 74.3535Z" fill="#0070E0"/>
<path d="M1150.65 39C1149.6 39.0009 1148.57 39.3794 1147.77 40.0674C1146.96 40.7555 1146.43 41.7079 1146.26 42.7536L1128.06 158.214C1127.97 158.73 1128.01 159.256 1128.15 159.759C1128.29 160.261 1128.54 160.726 1128.88 161.123C1129.22 161.52 1129.64 161.838 1130.11 162.057C1130.59 162.275 1131.1 162.388 1131.62 162.388H1158.62L1165.33 119.871L1172.63 73.601C1172.97 71.4399 1174.83 69.8497 1177.02 69.8497H1215.7C1222.74 69.8497 1229.16 71.4892 1234.63 74.3542C1235 54.9901 1219.02 39.0012 1197.05 39.0012L1150.65 39Z" fill="#003087"/>
</g>
<path d="M876.017 201.706C879.481 205.169 879.481 210.556 876.017 214.019C874.286 215.751 872.17 216.521 869.861 216.521C867.552 216.521 865.436 215.751 863.704 214.019L828.497 178.812L793.289 214.019C791.558 215.751 789.441 216.521 787.133 216.521C784.824 216.521 782.708 215.751 780.976 214.019C777.513 210.556 777.513 205.169 780.976 201.706L816.184 166.499L780.976 131.291C777.513 127.828 777.513 122.441 780.976 118.978C784.439 115.515 789.826 115.515 793.289 118.978L828.497 154.186L863.704 118.978C867.167 115.515 872.554 115.515 876.017 118.978C879.481 122.441 879.481 127.828 876.017 131.291L840.81 166.499L876.017 201.706Z" fill="#9EBDFB"/>
<defs>
<clipPath id="clip0_392_67">
<rect width="493.379" height="174.304" fill="white" transform="translate(116 80)"/>
</clipPath>
<clipPath id="clip1_392_67">
<rect width="275" height="256.186" fill="white" transform="translate(1050 39)"/>
</clipPath>
</defs>
</svg>
